HIERARCHY
ROOT Hips
{
   OFFSET 0.00000 0.00000 0.00000
   CHANNELS 6 Xposition Yposition Zposition Zrotation Xrotation Yrotation
   JOINT Spine
   {
      OFFSET 0.000000 11.890501 0.000000
      CHANNELS 3 Zrotation Xrotation Yrotation
      JOINT Spine1
      {
         OFFSET -0.000000 25.657401 0.127660
         CHANNELS 3 Zrotation Xrotation Yrotation
         JOINT HEad
         {
            OFFSET 0.000000 8.734161 0.011340
            CHANNELS 3 Zrotation Xrotation Yrotation
            End Site
            {
               OFFSET -0.290000 12.774200 2.513950
            }
         }
         JOINT LeftShoulder1
         {
            OFFSET 8.990000 -0.362250 -0.220000
            CHANNELS 3 Zrotation Xrotation Yrotation
            JOINT LeftArm
            {
               OFFSET 10.282700 -0.003380 0.322120
               CHANNELS 3 Zrotation Xrotation Yrotation
               JOINT LeftForeArm
               {
                  OFFSET 32.766900 0.099140 -1.424340
                  CHANNELS 3 Zrotation Xrotation Yrotation
                  JOINT LeftHand
                  {
                     OFFSET 27.564301 0.085360 1.022160
                     CHANNELS 3 Zrotation Xrotation Yrotation
                     End Site
                     {
                        OFFSET 16.744301 -0.600000 1.502910
                     }
                  }
               }
            }
         }
         JOINT RightShoulder
         {
            OFFSET -8.990000 -0.362250 -0.220000
            CHANNELS 3 Zrotation Xrotation Yrotation
            JOINT RightArm
            {
               OFFSET -10.282700 -0.003380 0.322120
               CHANNELS 3 Zrotation Xrotation Yrotation
               JOINT RightForeArm
               {
                  OFFSET -32.897098 0.099140 -1.424340
                  CHANNELS 3 Zrotation Xrotation Yrotation
                  JOINT RightHand
                  {
                     OFFSET -27.492101 0.085360 1.022160
                     CHANNELS 3 Zrotation Xrotation Yrotation
                     End Site
                     {
                        OFFSET -16.631201 -0.600000 1.502910
                     }
                  }
               }
            }
         }
      }
   }
   JOINT LeftUpLeg
   {
      OFFSET 8.945800 -8.667070 0.101650
      CHANNELS 3 Zrotation Xrotation Yrotation
      JOINT LeftLeg
      {
         OFFSET 0.000000 -44.422697 1.372700
         CHANNELS 3 Zrotation Xrotation Yrotation
         JOINT LeftFoot
         {
            OFFSET -0.253550 -42.092399 -1.460590
            CHANNELS 3 Zrotation Xrotation Yrotation
            JOINT LeftToes
            {
               OFFSET -0.040000 -4.415090 8.499099
               CHANNELS 3 Zrotation Xrotation Yrotation
               End Site
               {
                  OFFSET 0.080000 -0.047450 9.779790
               }
            }
         }
      }
   }
   JOINT RightUpLeg
   {
      OFFSET -8.945800 -8.667070 0.101650
      CHANNELS 3 Zrotation Xrotation Yrotation
      JOINT RightLeg
      {
         OFFSET 0.000000 -44.422697 1.372700
         CHANNELS 3 Zrotation Xrotation Yrotation
         JOINT RightFoot
         {
            OFFSET 0.253550 -42.092399 -1.460590
            CHANNELS 3 Zrotation Xrotation Yrotation
            JOINT RightToes
            {
               OFFSET 0.040000 -4.415090 8.499099
               CHANNELS 3 Zrotation Xrotation Yrotation
               End Site
               {
                  OFFSET -0.080000 -0.137450 9.779790
               }
            }
         }
      }
   }
}
MOTION
Frames: 7
Frame Time: 0.016670
-13.123135 83.852404 -38.766295 40.184083 26.429779 123.439851 -6.151452 38.736284 121.680749 30.741295 -17.085600 -117.026918 -25.330062 17.932435 26.186841 17.184131 64.194216 -39.079129 37.880229 -22.442190 6.794952 46.390655 14.175167 0.866775 -65.196266 -124.249446 -105.627175 -116.730747 38.455867 116.279176 97.976407 48.685592 216.833740 -16.153076 85.309322 62.700303 2.222413 10.949182 36.029326 21.034382 18.980406 -102.512219 -21.934983 -21.190968 65.441463 47.265333 23.430307 38.613030 -27.806948 17.762578 -23.298265 -28.737341 51.337720 5.636559 26.881697 8.804888 13.296919 -28.888579 1.836664 18.860580 24.114268 -23.212355 -46.278029
-13.728962 83.719023 -39.825439 40.105693 25.610337 122.314249 -4.216788 40.675996 121.371451 31.186319 -17.460576 -117.078649 -25.829189 14.792503 24.971117 22.258687 64.100697 -41.853026 37.229251 -23.825086 7.551981 46.358471 13.536737 3.436133 -68.298668 -120.860744 -104.164148 -119.655489 38.078646 115.752923 95.270443 49.298830 223.348333 -17.195749 86.845835 63.909308 1.783860 10.615880 35.052278 21.032466 18.664405 -106.204189 -20.901202 -23.689666 71.157163 48.259637 23.236544 38.837764 -27.496904 15.622888 -24.717876 -29.276117 50.600531 5.135913 27.853216 8.367795 14.637737 -29.464241 1.087364 19.074026 22.996330 -21.956143 -47.960991
-14.534344 83.536032 -40.654282 40.002437 24.404944 121.580796 -2.292476 42.790418 121.312875 31.478136 -17.733280 -117.330875 -26.218282 11.650330 24.129081 26.417708 64.222172 -45.002887 36.928152 -25.078593 8.732713 46.313529 11.911650 4.783226 -68.894561 -121.780907 -104.382004 -122.025892 38.035005 115.584819 91.293825 50.413343 229.318274 -18.117690 88.353790 65.459269 1.645239 10.297993 34.771250 20.699110 17.886297 -109.610562 -20.121305 -25.383430 76.375428 49.734292 23.301651 39.397832 -27.348528 13.589821 -25.607021 -29.148082 49.626136 4.471233 29.560222 8.094677 15.583007 -30.185454 0.844908 19.136291 22.155165 -20.828691 -49.698594
-15.524103 83.342208 -41.285724 40.154347 23.592100 121.191339 -0.756305 43.881431 120.576758 32.335758 -18.156653 -118.055339 -26.339993 8.033934 23.492468 30.132575 64.058329 -48.080266 36.238890 -26.354082 10.615036 46.643953 9.487011 5.645491 -69.893162 -119.736208 -105.758116 -123.854429 38.351854 115.892232 86.508512 51.690090 234.084052 -19.085842 89.816755 67.096193 1.853911 10.222795 34.655881 20.720038 17.311309 -111.708338 -19.035146 -26.505794 79.656569 50.763158 24.142653 39.081875 -27.111126 12.288139 -26.134194 -28.668643 48.643224 4.112683 30.651860 8.089640 16.425582 -31.138334 0.999603 19.230258 21.443299 -19.979207 -51.100685
-16.691664 83.215331 -41.731562 40.940168 23.679656 121.757930 1.468204 44.239866 120.166756 33.871355 -18.615771 -118.355786 -26.136347 5.353786 22.987299 33.748924 63.462163 -50.183241 36.494589 -27.629369 11.875312 47.046456 6.847592 6.309706 -69.755540 -120.146251 -107.444620 -125.112796 39.463522 116.694479 81.936015 53.315531 238.482776 -19.900735 91.134968 69.024362 2.364465 10.303754 34.889863 20.848094 17.727377 -113.131586 -18.139113 -26.822392 80.809232 52.183977 24.872953 38.432730 -27.014564 11.243733 -26.565473 -28.160049 48.286777 3.949338 31.648392 8.701420 17.009891 -32.260609 1.894430 19.370369 20.995300 -19.115331 -52.258095
-17.996462 83.149031 -42.086653 41.543809 23.395336 122.172823 2.514491 45.484518 120.537894 34.516576 -19.422362 -118.588094 -25.809953 3.126380 22.665313 37.303782 63.553360 -52.313027 37.016337 -28.682430 13.238090 47.205599 5.197862 7.106426 -70.885315 -118.455315 -108.716128 -126.388184 40.324730 116.690613 76.711883 54.795739 243.542880 -20.846595 92.389401 70.651846 3.142094 10.614963 35.140429 21.144066 18.049144 -113.177799 -17.577215 -26.589269 80.543319 53.905226 25.982320 37.453178 -26.830119 11.067890 -27.085047 -26.887844 48.037434 3.299462 32.570823 8.773591 17.174183 -33.122596 2.853559 19.007802 20.921520 -18.146617 -53.642007
-19.366524 83.194159 -42.314495 42.147168 23.285720 122.586555 2.892663 46.945564 121.254395 34.445071 -20.365934 -119.218452 -25.396216 1.211947 22.517566 40.861258 64.149806 -54.487479 37.628431 -29.571956 14.561304 47.271616 4.362866 8.056904 -72.148115 -117.662289 -109.273546 -127.648886 41.123036 116.014287 71.087161 56.126455 249.032440 -22.125481 93.534926 71.756943 4.139633 11.094033 35.430445 21.532530 18.062054 -113.219661 -17.645964 -26.716642 79.672941 55.836137 26.576334 36.372940 -26.848589 11.240485 -27.889201 -25.785378 47.606067 2.947881 32.511106 8.539300 17.629796 -33.422469 3.623726 18.771955 21.207034 -16.687701 -54.695188
